# xmcd CD database file
#
# Track frame offsets:
#	150
#	13772
#	27304
#	39279
#	53549
#	67678
#	79058
#	92985
#	105584
#	117509
#	131336
#	143903
#	158070
#	172884
#	187099
#	201201
#	214855
#	228715
#	242602
#	255753
#	268322
#	282484
#
# Disc length: 3951 seconds
#
# Revision: 0
# Processed by: cddbd v1.5.1PL0 Copyright (c) Steve Scherf et al.
# Submitted via: CDex 1.50
#
DISCID=310f6d16
DTITLE=Billie Holiday - Complete Columbia Golden Years Recordings Vol. 2a
DYEAR=1937
DGENRE=Jazz
TTITLE0=The Mood That I'm In
TTITLE1=You Showed Me the Way
TTITLE2=Sentimental and Melancholy
TTITLE3=My Last Affair
TTITLE4=Carelessly
TTITLE5=How Could You?
TTITLE6=Moanin' Low
TTITLE7=Where Is the Sun?
TTITLE8=Let's Call the Whole Thing Off
TTITLE9=They Can't Take That Away From Me
TTITLE10=I Don't Know If I'm Comin' Or Goin'
TTITLE11=SunShowers
TTITLE12=Yours and Mine
TTITLE13=I'll Get By
TTITLE14=Mean to Me
TTITLE15=Foolin' Myself
TTITLE16=Easy Living
TTITLE17=I'll Never Be the Same
TTITLE18=They Can't Take That Away From Me (alt)
TTITLE19=I Don't Know If I'm Comin' Or Goin' (alt)
TTITLE20=I'll Get By (alt)
TTITLE21=Mean to Me (alt)
EXTD=YEAR: 1937
EXTT0=
EXTT1=
EXTT2=
EXTT3=
EXTT4=
EXTT5=
EXTT6=
EXTT7=
EXTT8=
EXTT9=
EXTT10=
EXTT11=
EXTT12=
EXTT13=
EXTT14=
EXTT15=
EXTT16=
EXTT17=
EXTT18=
EXTT19=
EXTT20=
EXTT21=
PLAYORDER=
